
      <svg data-logo="logo" xmlns="http://www.w3.org/2000/svg" viewBox="0 0 219 42">
        <g id="logogram" transform="translate(0, 1) rotate(0) "><path d="M20 0C25.3043 4.00466e-07 30.3919 2.10669 34.1426 5.85742C34.8157 6.53058 35.4354 7.24719 36 8H20C16.8174 8 13.7651 9.26421 11.5146 11.5146C9.26421 13.7651 8 16.8174 8 20H20L36.9102 9.31934C38.1656 11.3074 39.0611 13.5027 39.5547 15.8027L32 20H40L39.9941 20.4971C39.8669 25.6213 37.776 30.5092 34.1426 34.1426C30.3919 37.8933 25.3043 40 20 40C14.6957 40 9.60815 37.8933 5.85742 34.1426C5.18426 33.4694 4.56459 32.7528 4 32H20C23.1826 32 26.2349 30.7358 28.4854 28.4854C30.5952 26.3755 31.8383 23.5608 31.9854 20.5947L32 20H20L3.08984 30.6787C1.83452 28.6906 0.941002 26.4951 0.447266 24.1953L8 20H0C8.00931e-07 14.6957 2.1067 9.60815 5.85742 5.85742C9.60815 2.1067 14.6957 -5.79361e-10 20 0Z" fill="#0094F7"/></g>
        <g id="logotype" transform="translate(46, 8)"><path fill="#c54120" d="M18.08 26L15.00 26L15.00 4.37L6.84 4.37L6.84 1.50L26.23 1.50L26.23 4.37L18.08 4.37L18.08 26ZM31.13 26L28.26 26L28.26 7.80L31.13 7.80L31.13 10.84L31.20 10.84Q31.87 9.41 33.23 8.53Q34.59 7.66 36.45 7.66L36.45 7.66L37.33 7.66L37.33 10.60L36.27 10.60Q34.35 10.60 33.21 11.37Q32.08 12.14 31.52 13.57L31.52 13.57Q31.13 14.62 31.13 16.66L31.13 16.66L31.13 26ZM44.78 26.42L44.78 26.42Q42.99 26.42 41.61 25.61Q40.23 24.81 39.46 23.45Q38.69 22.08 38.69 20.40L38.69 20.40Q38.69 17.81 40.55 16.27Q42.40 14.73 45.62 14.73L45.62 14.73L50.10 14.73L50.10 13.89Q50.10 12.56 49.64 11.79Q49.19 11.02 48.51 10.65Q47.83 10.28 47.11 10.16Q46.39 10.04 45.83 10.04L45.83 10.04Q44.22 10.04 42.99 10.77Q41.77 11.51 41.35 12.56L41.35 12.56L38.48 12.56Q38.76 11.09 39.77 9.92Q40.79 8.74 42.37 8.06Q43.94 7.38 45.83 7.38L45.83 7.38Q47.93 7.38 49.64 8.15Q51.36 8.92 52.23 10.35L52.23 10.35Q53.11 11.75 53.11 14.31L53.11 14.31L53.11 26L50.24 26L50.24 23.80L50.17 23.80Q49.75 24.32 48.98 24.93Q48.21 25.55 47.16 25.98Q46.11 26.42 44.78 26.42ZM45.20 23.76L45.20 23.76Q46.56 23.76 47.67 23.18Q48.77 22.61 49.44 21.61Q50.10 20.61 50.10 19.35L50.10 19.35L50.10 17.32L45.83 17.32Q43.38 17.32 42.54 18.13Q41.70 18.93 41.70 20.33L41.70 20.33Q41.70 21.73 42.68 22.75Q43.66 23.76 45.20 23.76ZM65.15 26L62 26L55.14 7.80L58.36 7.80L61.72 17.04L63.50 22.15L63.64 22.15L65.43 17.04L68.79 7.80L72.01 7.80L65.15 26ZM81.78 26.42L81.78 26.42Q78.94 26.42 77.03 25.13Q75.13 23.83 74.18 21.64Q73.23 19.45 73.23 16.83L73.23 16.83Q73.23 13.85 74.32 11.75Q75.41 9.65 77.28 8.52Q79.15 7.38 81.56 7.38L81.56 7.38Q83.81 7.38 85.54 8.41Q87.27 9.44 88.27 11.39Q89.27 13.33 89.27 16.09L89.27 16.09L89.27 17.63L76.39 17.63L76.39 17.81Q76.39 20.57 77.92 22.17Q79.47 23.76 81.84 23.76L81.84 23.76Q83.49 23.76 84.59 23.04Q85.70 22.32 85.98 21.45L85.98 21.45L89.06 21.45Q88.67 23.02 87.59 24.14Q86.50 25.27 84.98 25.84Q83.45 26.42 81.78 26.42ZM81.50 10.11L81.50 10.11Q79.33 10.11 77.94 11.49Q76.56 12.87 76.39 15.04L76.39 15.04L86.19 15.04Q86.05 12.80 84.80 11.46Q83.56 10.11 81.50 10.11ZM96.23 26L93.22 26L93.22 0.10L96.23 0.10L96.23 26ZM117.48 26L101.87 26L101.87 1.50L117.48 1.50L117.48 4.37L105.02 4.37L105.02 11.93L116.81 11.93L116.81 14.73L105.02 14.73L105.02 23.13L117.48 23.13L117.48 26ZM126.86 26.42L126.86 26.42Q125.07 26.42 123.69 25.61Q122.31 24.81 121.54 23.45Q120.77 22.08 120.77 20.40L120.77 20.40Q120.77 17.81 122.62 16.27Q124.48 14.73 127.70 14.73L127.70 14.73L132.18 14.73L132.18 13.89Q132.18 12.56 131.72 11.79Q131.27 11.02 130.58 10.65Q129.90 10.28 129.18 10.16Q128.47 10.04 127.91 10.04L127.91 10.04Q126.30 10.04 125.07 10.77Q123.85 11.51 123.43 12.56L123.43 12.56L120.56 12.56Q120.84 11.09 121.85 9.92Q122.87 8.74 124.44 8.06Q126.02 7.38 127.91 7.38L127.91 7.38Q130.00 7.38 131.72 8.15Q133.44 8.92 134.31 10.35L134.31 10.35Q135.19 11.75 135.19 14.31L135.19 14.31L135.19 26L132.31 26L132.31 23.80L132.25 23.80Q131.83 24.32 131.06 24.93Q130.28 25.55 129.24 25.98Q128.19 26.42 126.86 26.42ZM127.28 23.76L127.28 23.76Q128.64 23.76 129.74 23.18Q130.84 22.61 131.51 21.61Q132.18 20.61 132.18 19.35L132.18 19.35L132.18 17.32L127.91 17.32Q125.46 17.32 124.62 18.13Q123.78 18.93 123.78 20.33L123.78 20.33Q123.78 21.73 124.76 22.75Q125.74 23.76 127.28 23.76ZM146.04 26.42L146.04 26.42Q145.13 26.42 144.27 26.26Q143.41 26.11 142.61 25.86L142.61 25.86Q141.00 25.34 139.95 24.14Q138.90 22.95 138.62 21.03L138.62 21.03L141.56 21.03Q141.84 22.32 143.01 23.01Q144.18 23.69 145.97 23.69L145.97 23.69Q147.75 23.69 148.78 22.95Q149.81 22.22 149.81 20.89L149.81 20.89Q149.81 19.95 149.10 19.11Q148.38 18.27 147.16 18.09L147.16 18.09L144.01 17.63Q141.66 17.28 140.31 16.18Q138.97 15.08 138.97 12.91L138.97 12.91Q138.97 11.40 139.81 10.14Q140.65 8.88 142.13 8.13Q143.62 7.38 145.62 7.38L145.62 7.38Q148.45 7.38 150.25 8.76Q152.06 10.14 152.48 12.42L152.48 12.42L149.54 12.42Q148.66 10.04 145.62 10.04L145.62 10.04Q143.94 10.04 142.96 10.81Q141.98 11.58 141.98 12.70L141.98 12.70Q141.98 14.48 144.50 14.87L144.50 14.87L147.72 15.36Q149.26 15.57 150.41 16.11Q151.56 16.66 152.20 17.76Q152.83 18.86 152.83 20.75L152.83 20.75Q152.83 22.57 151.90 23.85Q150.97 25.13 149.43 25.77Q147.89 26.42 146.04 26.42ZM164.17 26.42L164.17 26.42Q161.33 26.42 159.42 25.13Q157.52 23.83 156.57 21.64Q155.63 19.45 155.63 16.83L155.63 16.83Q155.63 13.85 156.71 11.75Q157.80 9.65 159.67 8.52Q161.54 7.38 163.96 7.38L163.96 7.38Q166.20 7.38 167.93 8.41Q169.66 9.44 170.66 11.39Q171.66 13.33 171.66 16.09L171.66 16.09L171.66 17.63L158.78 17.63L158.78 17.81Q158.78 20.57 160.32 22.17Q161.86 23.76 164.24 23.76L164.24 23.76Q165.88 23.76 166.98 23.04Q168.09 22.32 168.37 21.45L168.37 21.45L171.45 21.45Q171.06 23.02 169.98 24.14Q168.89 25.27 167.37 25.84Q165.85 26.42 164.17 26.42ZM163.89 10.11L163.89 10.11Q161.72 10.11 160.33 11.49Q158.95 12.87 158.78 15.04L158.78 15.04L168.58 15.04Q168.44 12.80 167.19 11.46Q165.95 10.11 163.89 10.11Z"/></g>
        
      </svg>
      
      